<?xml version="1.0" encoding="UTF-8"?>
<svg id="Layer_1" data-name="Layer 1" xmlns="http://www.w3.org/2000/svg" viewBox="0 0 1206 1050">
  <defs>
    <style>
      .cls-1, .cls-2 {
        fill: #b373f8;
        opacity: .54;
      }

      .cls-3 {
        fill: #f0d229;
      }

      .cls-4 {
        fill: #80b4f4;
      }

      .cls-5 {
        fill: #f99908;
      }

      .cls-2 {
        fill-rule: evenodd;
      }

      .cls-6 {
        fill: #fff;
      }

      .cls-7 {
        fill: #29cbc3;
      }

      .cls-8 {
        fill: #e4caff;
      }
    </style>
  </defs>
  <path class="cls-3" d="M181.25,364.26c23.91-1.83,57.61,8.12,71.48,12.66,3.83,1.25,6.34,4.84,6.34,8.87,0,5.85-5.18,10.33-10.97,9.5l-47.87-6.91c-12.25-1.77-24.76.88-34.76,8.16-15.17,11.03-37.34,28.7-48.15,44.82-15.79,23.54-31.06,61.74-30.03,90.67.56,15.65,6.48,31.26,13.59,44.58,14.09,26.41,31.26,39.26,58.54,51.57,32.98,14.88,77.6,27.44,113.78,27.44h29.61c34.32,0,68.2,7.75,99.11,22.66,12.68,6.12,24.76,13.39,36.09,21.73l6.99,5.15c24.15,17.77,50.66,32.08,78.77,42.52l21.55,8,19.39,5.79c32.68,9.76,67.5,9.76,100.18,0,12.88-3.85,25.28-9.17,36.95-15.86l14.52-8.32c29.44-16.88,63.79-23.1,97.28-17.61,7.89,1.29,15.94,1.69,23.71,3.56,6.11,1.47,12.74,3.83,19.38,6.63,32.79,13.81,66.93,25.81,102.51,25.81h2.3c19.58,0,39-3.38,57.43-10l4.64-1.67c22.05-7.92,41.92-20.92,58-37.95l2.63-2.79c9.87-10.45,17.89-22.5,23.72-35.63l2.49-5.6c8.45-19.05,11.12-40.16,7.68-60.71-3-17.89-10.6-34.82-21.93-48.98-7.54-9.43-16.68-17.57-26.92-23.97l-10.45-6.53c-9.9-6.19-20.38-11.39-31.3-15.55l-36.41-13.85-24.93-6.64c-6.54-1.74-11.08-7.66-11.08-14.42,0-8.24,6.68-14.93,14.93-14.93h16.24c3.21,0,6.39.49,9.45,1.47l21.8,6.93,48.01,18,57.86,29.69,4.18,2.79c22.26,14.87,40.15,35.41,51.84,59.49,7.08,14.58,11.91,30.21,12.81,46.4.88,15.92,1.07,36.79-2.12,53.62-2.13,11.22-6.07,21.73-10.55,30.96-12.66,26.1-35.57,45.1-58.6,62.74-14.53,11.12-29.52,21.76-46.28,29.09-15.92,6.96-37.32,14.28-57.14,14.41-32.38.22-84.73-18.44-101.49-24.75-3.59-1.35-7.18-2.63-10.84-3.78l-10.29-3.24c-31.46-9.9-65.52-7.23-95.05,7.45-4.79,2.38-9.41,5.06-13.94,7.91-15.22,9.57-53.15,32.29-82.19,40.14-48.4,13.09-79.24,12.15-127.85,0-27.64-6.91-63.19-26.13-81.82-36.91-8.53-4.94-16.69-10.43-24.73-16.14l-37.73-26.84c-22.23-15.81-46.99-27.74-73.22-35.28-21.65-6.22-44.07-9.38-66.6-9.38h-70.37c-26.66,0-53.2-3.7-78.85-11-29.62-8.43-58.34-20.93-80.64-42.17-15.77-15.01-32.24-34.16-39.12-53.58-17.78-50.26-6.59-88.76,16.68-136.4.33-.68.67-1.35,1.02-2.04,27.57-53.28,80.9-97.17,140.72-101.75Z"/>
  <path class="cls-7" d="M552.23,718.64c-30.11-7.41-70.91-31.21-80.7-37.08-1.46-.87-2.88-1.79-4.3-2.72l-11.86-7.81c-21.32-14.03-46.29-21.51-71.82-21.51-6.4,0-12.8-.47-19.13-1.41l-58.3-8.63c-13.27-1.96-26.36-5.01-39.13-9.11l-22.16-7.11c-24.84-7.97-47.27-22.07-65.22-40.99l-5.37-5.67c-10.57-11.14-18.83-24.27-24.29-38.62l-1.31-3.43c-8.02-21.06-9.06-44.15-2.96-65.84l2.65-9.43c6.31-22.45,21.78-41.21,42.61-51.68l12.77-6.41c6.89-3.46,14.67-4.72,22.3-3.61l25.11,3.66c4.05.59,7.05,4.06,7.05,8.15,0,4.55-3.69,8.24-8.24,8.24h-16.67c-3.66,0-7.28.81-10.59,2.36l-16.83,7.91c-15.48,7.28-26.91,21.08-31.18,37.65-3.51,13.66-1.88,28.13,4.6,40.66l2.83,5.47c6.7,12.96,17.1,23.64,29.88,30.67l15.72,8.65c10.52,5.79,21.78,10.12,33.47,12.88l12.54,2.96c19.56,4.61,39.78,5.76,59.73,3.38,22.72-2.7,45.76-.84,67.75,5.48l16.86,4.84c23.31,6.7,45.55,16.64,66.09,29.53l24.03,15.08c12.05,7.56,24.93,13.72,38.39,18.34l1.65.57c27.24,9.36,56.35,11.98,84.82,7.65,9.51-1.45,18.9-3.66,28.05-6.62l17.69-5.72c21.25-6.87,41.66-16.27,62.94-23.05,9.17-2.92,19.02-5.19,27.49-5.19,21.83,0,52.85,15.09,57.82,17.58.47.24.92.46,1.38.7l47.58,24.3c17.69,9.03,37.26,13.74,57.12,13.74h17.96c15.4,0,30.4-4.98,42.74-14.19l4.01-2.99c11.84-8.83,19.91-21.8,22.61-36.32,2.78-14.95-.35-30.4-8.73-43.09l-9.58-14.51c-3.57-5.41-7.82-10.34-12.65-14.68l-22.19-19.95c-1.96-1.77-3.08-4.28-3.08-6.92,0-6.29,6.1-10.76,12.1-8.88l16.33,5.14c2.71.85,5.24,2.23,7.42,4.05l36.84,30.66c15.91,13.25,27.4,31.03,32.93,50.99l1,3.63c6.42,23.17,3.55,47.93-8,69.02-10.19,18.6-26.39,33.39-46.69,39.51-16.21,4.89-35.96,9.62-51.93,9.72-26.89.18-64.29-12.61-79-18.06-4.23-1.57-8.44-3.16-12.7-4.66l-50.32-17.62c-20.23-7.08-42.12-7.96-62.85-2.51-11.22,2.95-21.85,7.72-31.84,13.61-16.09,9.48-42.21,23.67-63.1,29.24-42.44,11.31-69.49,10.49-112.12,0Z"/>
  <path class="cls-4" d="M218.31,378.22c16.59-1.22,38.72,3.96,52.68,7.91,6.55,1.85,8.81,9.7,4.51,14.97-1.86,2.28-4.65,3.61-7.6,3.61h-34.39c-10.05,0-20.05,1.75-29.07,6.18-12.86,6.32-31.32,17.02-40.38,29.95-13.4,19.12-13.04,34.54-16.51,57.8-3.22,21.64.6,38.17,6.87,50.5,13.23,26.01,37.81,47.19,63.89,60.28,18.5,9.29,32.91,15.12,43.49,18.76,14.72,5.08,30.33,6.35,45.88,7.1l91.68,4.4c14.46.69,34.43,5.61,46.28,13.93,22.58,15.88,40.91,28.04,66.92,37.28l14.71,5.22c38.54,11.02,79.39,11.02,117.92,0l4.58-1.44c37.76-11.87,73.76-34.68,113.34-34.68s75.92,21.79,114.23,31.57l17.85,4.56,47.23,8.66c28.95,5.31,58.84.49,84.66-13.63,17.19-9.4,32.77-22.3,40.61-40.26,3.83-8.77,6.88-18.49,6.74-27.02-.35-21.48-9.27-32.89-21.23-50.57-13.38-19.8-43.39-40.19-50.4-44.79-.99-.65-2-1.26-3.02-1.86l-42.98-25.08c-3.1-1.81-5.01-5.13-5.01-8.72,0-6.73,6.46-11.58,12.93-9.69l48.74,14.22c2.9.85,5.72,1.97,8.41,3.34l33.99,17.35c12.3,6.28,23.49,14.51,33.16,24.38,19.6,20.02,32.98,45.96,32.46,73.97-.16,8.51-.79,17.04-2.23,24.32-1.73,8.73-5.17,18.37-9.2,27.7-13.16,30.44-39.17,52.73-68.44,68.32-6.41,3.41-12.99,6.49-19.84,8.89-15.86,5.56-46.97,15.35-69.97,15.5-25.99.17-62.13-11.83-76.4-16.98-4.12-1.49-8.22-3-12.37-4.41l-48.71-16.58c-19.56-6.66-40.64-7.48-60.66-2.37-10.92,2.79-21.29,7.33-31.08,12.93-15.58,8.92-40.75,22.19-60.88,27.4-41.07,10.63-67.24,9.87-108.49,0-23.43-5.61-53.55-21.18-69.37-29.94-7.28-4.03-14.26-8.52-21.14-13.21l-31.42-21.39c-19.21-13.08-40.45-22.89-62.85-29.05-18.24-5.01-37.06-7.55-55.98-7.55h-60.39c-22.4,0-44.7-2.98-66.31-8.87-25.3-6.89-49.93-17.12-69.26-34.85-13.2-12.11-26.86-27.44-32.61-42.98-15.09-40.82-5.59-72.09,14.15-110.78,23-45.07,69.81-80.59,120.28-84.29Z"/>
  <circle class="cls-8" cx="607.9" cy="507.24" r="367.24"/>
  <path class="cls-2" d="M243.88,556.08c-2.12-15.98-3.22-32.28-3.22-48.84,0-19.88,1.58-39.39,4.62-58.42l9.54-7.77c5.94-4.83,9.38-12.09,9.38-19.74v-26.66c0-9.43,5.22-18.09,13.56-22.5l60.49-32c1.97-1.04,3.79-2.33,5.42-3.85l46.11-42.82c3.15-2.92,7.28-4.55,11.58-4.55,14.78,0,22.53,17.55,12.59,28.48l-19.27,21.17-27.24,27.8c-2.6,2.65-4.58,5.84-5.82,9.33l-18.44,52.15c-1.29,3.65-3.4,6.96-6.16,9.67l-29.53,29.01c-1.69,1.66-3.14,3.55-4.31,5.61l-37.75,66.65c-.82,1.44-1.77,2.8-2.85,4.05l-4.11,4.79c-4.01,4.67-9.19,7.44-14.59,8.44Z"/>
  <path class="cls-1" d="M576.16,390.96l41.04-44.19c2.64-2.84,6.11-4.79,9.91-5.56l13.1-2.67c15.17-3.09,24.57,15.98,12.87,26.13l-31.82,31.19-21.17,19.27c-10.93,9.95-28.48,2.19-28.48-12.59,0-4.3,1.62-8.43,4.55-11.58Z"/>
  <path class="cls-1" d="M630.9,571.71l41.04-44.19c2.64-2.84,6.11-4.79,9.91-5.56l13.1-2.67c15.17-3.09,24.57,15.98,12.87,26.13l-31.82,31.19-21.17,19.27c-10.93,9.95-28.48,2.19-28.48-12.59,0-4.3,1.62-8.43,4.55-11.58Z"/>
  <path class="cls-2" d="M655.14,143.01l-37.06,45.52c-4.83,5.94-12.09,9.38-19.74,9.38h-26.66c-9.43,0-18.09,5.22-22.5,13.56l-32,60.49c-1.04,1.97-2.33,3.79-3.85,5.42l-42.82,46.11c-2.92,3.15-4.55,7.28-4.55,11.58,0,14.78,17.55,22.53,28.48,12.59l21.17-19.27,27.8-27.24c2.65-2.6,5.84-4.58,9.33-5.82l52.15-18.44c3.65-1.29,6.96-3.4,9.67-6.16l29.01-29.53c1.66-1.69,3.55-3.14,5.61-4.31l66.65-37.75c1.44-.82,2.8-1.77,4.05-2.85l4.79-4.11c9.52-8.19,11.16-21.21,5.95-31.18-24.1-8.54-49.36-14.64-75.48-18Z"/>
  <path class="cls-1" d="M791.2,706.61l38.27-47.01c7.42-9.11,20.11-11.96,30.71-6.9l31.98,15.28c16.59,7.93,19.57,30.29,5.62,42.28l-4.79,4.11c-1.25,1.08-2.61,2.03-4.05,2.85l-66.65,37.75c-2.06,1.17-3.95,2.62-5.61,4.31l-29.01,29.53c-2.71,2.76-6.02,4.87-9.67,6.16l-52.15,18.44c-3.5,1.24-6.68,3.22-9.33,5.82l-27.8,27.24-21.17,19.27c-10.93,9.95-28.48,2.19-28.48-12.59,0-4.3,1.62-8.43,4.55-11.58l42.82-46.11c1.51-1.63,2.81-3.45,3.85-5.42l32-60.49c4.41-8.34,13.07-13.56,22.5-13.56h26.66c7.66,0,14.91-3.45,19.74-9.38Z"/>
  <path class="cls-2" d="M849.53,230.69c15.15,13.25,29.2,27.72,41.99,43.26-2.15,2.84-5.55,4.8-9.8,4.8-2.97,0-5.85,1.07-8.09,3.02l-39.8,34.53-31.82,31.19-21.17,19.27c-10.93,9.95-28.48,2.19-28.48-12.59,0-4.3,1.62-8.43,4.55-11.58l42.82-46.11c1.51-1.63,2.81-3.45,3.85-5.42l25.16-47.57c4.3-8.13,12.44-12.62,20.79-12.79Z"/>
  <path class="cls-1" d="M802.31,576.83l29.35-55.49c5.21-9.85,17.88-12.89,26.99-6.48,9.12,6.42,10.53,19.39,3,27.61l-4.89,5.35c-8.66,9.46-8.7,23.96-.1,33.48l2.42,2.68c4.24,4.68,6.58,10.77,6.58,17.08v6.04c0,9.77-5.59,18.67-14.38,22.92l-67.54,32.64c-15.1,7.3-32.64-3.7-32.64-20.48,0-5.74,2.17-11.27,6.08-15.48l41.28-44.46c1.51-1.63,2.81-3.45,3.85-5.42Z"/>
  <path class="cls-2" d="M954.47,631.46c-1.01-.35-2.01-.8-2.99-1.38l-31.66-18.74c-7.74-4.58-12.49-12.91-12.49-21.91v-1.15c0-4.8,1.54-9.48,4.4-13.34l.97-1.31c5.31-7.19,5.29-17.02-.07-24.18l-4.78-6.4c-3.68-4.93-2.92-11.86,1.73-15.87,5.98-5.16,15.25-3.03,18.38,4.23l16.57,38.35c.81,1.88,1.85,3.66,3.09,5.29l16.81,22.17c-2.8,11.63-6.13,23.05-9.96,34.25Z"/>
  <path class="cls-2" d="M946.22,364.16c-.77,3.06-2.42,5.84-4.77,7.99l-30.83,28.22c-1.59,1.46-2.99,3.11-4.16,4.92l-23.6,36.35c-4.38,6.75-13.86,7.77-19.58,2.12-5.14-5.08-5.01-13.42.29-18.34l4.79-4.45c6.71-6.23,8.01-16.37,3.09-24.09l-.97-1.52c-2.65-4.15-3.76-9.09-3.15-13.98l.13-1.03c1.11-8.83,7.01-16.32,15.34-19.46l42-15.85c4.56-1.72,9.19-1.26,13.02.69,2.97,6.05,5.78,12.2,8.42,18.44Z"/>
  <path class="cls-1" d="M313.11,571.9l-43.89,31.15c-12.53,8.9-13.61,27.11-2.21,37.42l23.55,21.29c8.52,7.7,22.03.62,20.53-10.77-.39-2.95.3-5.94,1.94-8.42l29.04-43.96,26.77-35.62,16.34-23.5c8.44-12.13-1.54-28.52-16.19-26.59-4.26.56-8.15,2.71-10.89,6.02l-40.13,48.46c-1.42,1.71-3.06,3.23-4.87,4.52Z"/>
  <path class="cls-2" d="M490.26,855.23c-24.23-8.19-47.33-18.83-68.99-31.64,1.67-3.85,5.06-7,9.93-8.01,3.47-.72,6.54-2.73,8.57-5.63l33.66-47.92,26.24-42.65,16.38-24.55c9.42-14.12,31.2-9.89,34.65,6.74.93,4.48.22,9.13-1.99,13.13l-34.79,62.98c-1.05,1.89-1.85,3.91-2.38,6.01l-15.53,60.77c-1.07,4.2-3.1,7.83-5.76,10.77Z"/>
  <path class="cls-1" d="M343.05,727.32l63.78-79.01,75.91-79.82c4.29-4.52,4.75-11.45,1.09-16.5-6.99-9.62,1.63-22.78,13.24-20.21l19.24,4.26c13.68,3.03,20.29,18.63,12.96,30.57l-5.08,8.28c-1.47,2.39-2.53,5.02-3.15,7.76l-7.58,33.85c-1.06,4.72-3.44,9.04-6.86,12.46l-55.28,55.18-44.5,50.17-25.55,26.76c-15.86,16.61-43.87,5.22-43.87-17.74,0-5.82,1.99-11.49,5.65-16.01Z"/>
  <path class="cls-1" d="M425.96,214.66l41.04-44.19c2.64-2.84,6.11-4.79,9.91-5.56l13.1-2.67c15.17-3.09,24.57,15.98,12.87,26.13l-31.82,31.19-21.17,19.27c-10.93,9.95-28.48,2.19-28.48-12.59,0-4.3,1.62-8.43,4.55-11.58Z"/>
  <path class="cls-6" d="M607.26,369.13c-68.99-3.21-162.24,34.34-204.33,53.21-10.33,4.63-11.59,18.22-2.23,24.59,40.08,27.27,132.65,84.87,206.56,90.22,72.7,5.27,171.03-36.84,214.51-57.61,10.29-4.92,11.09-18.63,1.42-24.69-42.05-26.34-139.58-82.18-215.93-85.73Z"/>
  <circle class="cls-5" cx="618.08" cy="451.75" r="88.47"/>
  <rect class="cls-6" x="40" y="4" width="38.02" height="30" rx="3" ry="3"/>
</svg>
